<svg xmlns="http://www.w3.org/2000/svg" xmlns:xlink="http://www.w3.org/1999/xlink" width="500" zoomAndPan="magnify" viewBox="0 0 375 374.999991" height="500" preserveAspectRatio="xMidYMid meet" version="1.0"><path fill="#c5d0f7" d="M 187.5 375 C 84.113281 375 0 290.886719 0 187.5 C 0 84.113281 84.113281 0 187.5 0 C 290.886719 0 375 84.113281 375 187.5 C 375 290.886719 290.886719 375 187.5 375 Z M 187.5 35.535156 C 103.707031 35.535156 35.535156 103.707031 35.535156 187.5 C 35.535156 271.292969 103.707031 339.464844 187.5 339.464844 C 271.292969 339.464844 339.464844 271.292969 339.464844 187.5 C 339.464844 103.707031 271.292969 35.535156 187.5 35.535156 Z M 187.5 35.535156 " fill-opacity="1" fill-rule="nonzero"/><path fill="#c5d0f7" d="M 188.222656 286.695312 L 186.777344 286.695312 C 174.402344 286.695312 164.277344 276.570312 164.277344 264.195312 L 164.277344 110.804688 C 164.277344 98.429688 174.402344 88.304688 186.777344 88.304688 L 188.222656 88.304688 C 200.597656 88.304688 210.722656 98.429688 210.722656 110.804688 L 210.722656 264.195312 C 210.722656 276.570312 200.597656 286.695312 188.222656 286.695312 Z M 188.222656 286.695312 " fill-opacity="1" fill-rule="nonzero"/><path fill="#c5d0f7" d="M 88.300781 187.238281 L 88.308594 188.683594 C 88.367188 201.058594 98.535156 211.136719 110.910156 211.078125 L 264.304688 210.367188 C 276.679688 210.308594 286.757812 200.140625 286.699219 187.765625 L 286.691406 186.320312 C 286.636719 173.945312 276.464844 163.867188 264.089844 163.921875 L 110.695312 164.632812 C 98.320312 164.691406 88.242188 174.863281 88.300781 187.238281 Z M 88.300781 187.238281 " fill-opacity="1" fill-rule="nonzero"/></svg>