<svg xmlns="http://www.w3.org/2000/svg" xmlns:xlink="http://www.w3.org/1999/xlink" width="40" zoomAndPan="magnify" viewBox="0 0 30 30.000001" height="40" preserveAspectRatio="xMidYMid meet" version="1.0"><defs><clipPath id="463980fcad"><path d="M 0.484375 0 L 29.515625 0 L 29.515625 28.304688 L 0.484375 28.304688 Z M 0.484375 0 " clip-rule="nonzero"/></clipPath></defs><g clip-path="url(#463980fcad)"><path fill="#797dc5" d="M 28.6875 10.777344 L 15.746094 0.335938 C 15.519531 0.15625 15.261719 0.0625 14.96875 0.0625 C 14.679688 0.0625 14.417969 0.15625 14.191406 0.335938 L 1.25 10.777344 C 1.125 10.878906 1.023438 11 0.945312 11.144531 C 0.867188 11.289062 0.820312 11.441406 0.800781 11.601562 C 0.785156 11.765625 0.800781 11.925781 0.847656 12.082031 C 0.890625 12.238281 0.96875 12.378906 1.070312 12.503906 C 1.171875 12.632812 1.296875 12.734375 1.441406 12.8125 C 1.582031 12.890625 1.738281 12.9375 1.898438 12.953125 C 2.0625 12.96875 2.222656 12.957031 2.378906 12.910156 C 2.535156 12.863281 2.675781 12.789062 2.804688 12.6875 L 3.261719 12.34375 L 3.261719 27.078125 C 3.261719 27.242188 3.292969 27.398438 3.355469 27.546875 C 3.417969 27.699219 3.507812 27.832031 3.621094 27.945312 C 3.738281 28.0625 3.871094 28.152344 4.023438 28.214844 C 4.171875 28.273438 4.328125 28.304688 4.492188 28.304688 L 25.445312 28.304688 C 25.609375 28.304688 25.765625 28.273438 25.917969 28.214844 C 26.066406 28.152344 26.199219 28.0625 26.316406 27.945312 C 26.433594 27.832031 26.519531 27.699219 26.582031 27.546875 C 26.644531 27.398438 26.675781 27.242188 26.675781 27.078125 L 26.675781 12.34375 L 27.132812 12.710938 C 27.261719 12.8125 27.40625 12.886719 27.5625 12.933594 C 27.722656 12.976562 27.882812 12.992188 28.046875 12.972656 C 28.210938 12.953125 28.363281 12.90625 28.507812 12.828125 C 28.652344 12.746094 28.777344 12.644531 28.878906 12.515625 C 28.984375 12.386719 29.058594 12.246094 29.101562 12.085938 C 29.148438 11.929688 29.164062 11.769531 29.144531 11.605469 C 29.125 11.441406 29.078125 11.289062 29 11.144531 C 28.917969 11.003906 28.816406 10.878906 28.6875 10.777344 Z M 11.886719 25.851562 L 11.886719 18.480469 L 18.050781 18.480469 L 18.050781 25.851562 Z M 24.210938 25.851562 L 20.515625 25.851562 L 20.515625 17.253906 C 20.515625 17.089844 20.484375 16.933594 20.421875 16.785156 C 20.359375 16.632812 20.269531 16.5 20.15625 16.386719 C 20.039062 16.269531 19.90625 16.183594 19.753906 16.121094 C 19.601562 16.058594 19.445312 16.027344 19.28125 16.027344 L 10.65625 16.027344 C 10.492188 16.027344 10.335938 16.058594 10.183594 16.121094 C 10.03125 16.183594 9.898438 16.269531 9.785156 16.386719 C 9.667969 16.5 9.578125 16.632812 9.515625 16.785156 C 9.453125 16.933594 9.421875 17.089844 9.421875 17.253906 L 9.421875 25.851562 L 5.726562 25.851562 L 5.726562 10.328125 L 14.96875 2.867188 L 24.210938 10.328125 Z M 24.210938 25.851562 " fill-opacity="1" fill-rule="nonzero"/></g></svg>