<svg xmlns="http://www.w3.org/2000/svg" xmlns:xlink="http://www.w3.org/1999/xlink" width="40" zoomAndPan="magnify" viewBox="0 0 30 30.000001" height="40" preserveAspectRatio="xMidYMid meet" version="1.0"><defs><clipPath id="34a7da7c92"><path d="M 0.484375 6 L 29.515625 6 L 29.515625 28.796875 L 0.484375 28.796875 Z M 0.484375 6 " clip-rule="nonzero"/></clipPath><clipPath id="36624c9f8a"><path d="M 0.484375 0.488281 L 26 0.488281 L 26 14 L 0.484375 14 Z M 0.484375 0.488281 " clip-rule="nonzero"/></clipPath></defs><g clip-path="url(#34a7da7c92)"><path fill="#797dc5" d="M 26.605469 28.796875 L 3.394531 28.796875 C 3.011719 28.796875 2.640625 28.722656 2.285156 28.574219 C 1.929688 28.425781 1.617188 28.210938 1.34375 27.9375 C 1.074219 27.664062 0.863281 27.347656 0.714844 26.988281 C 0.566406 26.628906 0.492188 26.257812 0.492188 25.867188 L 0.492188 9.761719 C 0.492188 9.375 0.566406 9 0.714844 8.644531 C 0.863281 8.285156 1.074219 7.96875 1.34375 7.691406 C 1.617188 7.417969 1.929688 7.207031 2.285156 7.058594 C 2.640625 6.910156 3.011719 6.835938 3.394531 6.835938 L 26.605469 6.835938 C 26.988281 6.835938 27.359375 6.910156 27.714844 7.058594 C 28.070312 7.207031 28.382812 7.417969 28.65625 7.691406 C 28.925781 7.96875 29.136719 8.285156 29.285156 8.644531 C 29.433594 9 29.507812 9.375 29.507812 9.761719 L 29.507812 25.867188 C 29.507812 26.257812 29.433594 26.628906 29.285156 26.988281 C 29.136719 27.347656 28.925781 27.664062 28.65625 27.9375 C 28.382812 28.210938 28.070312 28.425781 27.714844 28.574219 C 27.359375 28.722656 26.988281 28.796875 26.605469 28.796875 Z M 3.394531 7.8125 C 3.136719 7.8125 2.890625 7.859375 2.65625 7.960938 C 2.417969 8.058594 2.207031 8.199219 2.027344 8.382812 C 1.847656 8.566406 1.707031 8.777344 1.609375 9.015625 C 1.511719 9.253906 1.460938 9.503906 1.460938 9.761719 L 1.460938 25.867188 C 1.460938 26.128906 1.511719 26.375 1.609375 26.613281 C 1.707031 26.855469 1.847656 27.066406 2.027344 27.25 C 2.207031 27.429688 2.417969 27.574219 2.65625 27.671875 C 2.890625 27.769531 3.136719 27.820312 3.394531 27.820312 L 26.605469 27.820312 C 26.863281 27.820312 27.109375 27.769531 27.34375 27.671875 C 27.582031 27.574219 27.792969 27.429688 27.972656 27.25 C 28.152344 27.066406 28.292969 26.855469 28.390625 26.613281 C 28.488281 26.375 28.539062 26.128906 28.539062 25.867188 L 28.539062 9.761719 C 28.539062 9.503906 28.488281 9.253906 28.390625 9.015625 C 28.292969 8.777344 28.152344 8.566406 27.972656 8.382812 C 27.792969 8.199219 27.582031 8.058594 27.34375 7.960938 C 27.109375 7.859375 26.863281 7.8125 26.605469 7.8125 Z M 3.394531 7.8125 " fill-opacity="1" fill-rule="nonzero"/></g><g clip-path="url(#36624c9f8a)"><path fill="#797dc5" d="M 0.976562 13.179688 C 0.84375 13.179688 0.730469 13.132812 0.636719 13.035156 C 0.539062 12.941406 0.492188 12.824219 0.492188 12.691406 L 0.492188 2.441406 C 0.484375 2.179688 0.53125 1.929688 0.625 1.6875 C 0.722656 1.441406 0.859375 1.230469 1.042969 1.042969 C 1.226562 0.859375 1.4375 0.71875 1.679688 0.621094 C 1.917969 0.527344 2.167969 0.480469 2.429688 0.488281 L 11.613281 0.488281 C 11.792969 0.488281 11.929688 0.566406 12.023438 0.71875 L 14.300781 4.394531 L 22.738281 4.394531 C 23.125 4.378906 23.5 4.445312 23.863281 4.585938 C 24.226562 4.730469 24.546875 4.941406 24.820312 5.21875 C 25.097656 5.496094 25.304688 5.820312 25.445312 6.183594 C 25.589844 6.550781 25.652344 6.929688 25.636719 7.324219 C 25.636719 7.457031 25.589844 7.574219 25.496094 7.667969 C 25.402344 7.761719 25.289062 7.8125 25.15625 7.8125 C 25.019531 7.8125 24.90625 7.761719 24.8125 7.667969 C 24.71875 7.574219 24.671875 7.457031 24.671875 7.324219 C 24.671875 5.390625 22.816406 5.371094 22.738281 5.371094 L 14.03125 5.371094 C 13.855469 5.371094 13.71875 5.292969 13.621094 5.140625 L 11.347656 1.464844 L 2.429688 1.464844 C 2.296875 1.457031 2.171875 1.476562 2.046875 1.523438 C 1.925781 1.570312 1.816406 1.640625 1.726562 1.734375 C 1.632812 1.828125 1.5625 1.933594 1.515625 2.058594 C 1.472656 2.183594 1.453125 2.308594 1.460938 2.441406 L 1.460938 12.691406 C 1.460938 12.824219 1.414062 12.941406 1.320312 13.035156 C 1.226562 13.132812 1.109375 13.179688 0.976562 13.179688 Z M 0.976562 13.179688 " fill-opacity="1" fill-rule="nonzero"/></g><path fill="#797dc5" d="M 7.746094 23.914062 C 7.425781 23.914062 7.117188 23.855469 6.820312 23.730469 C 6.527344 23.605469 6.265625 23.429688 6.039062 23.203125 C 5.808594 22.972656 5.636719 22.707031 5.511719 22.410156 C 5.390625 22.109375 5.328125 21.800781 5.328125 21.476562 C 5.328125 21.152344 5.390625 20.839844 5.511719 20.542969 C 5.636719 20.242188 5.808594 19.980469 6.039062 19.75 C 6.265625 19.519531 6.527344 19.34375 6.820312 19.222656 C 7.117188 19.097656 7.425781 19.035156 7.746094 19.035156 C 8.066406 19.035156 8.375 19.097656 8.671875 19.222656 C 8.96875 19.34375 9.230469 19.519531 9.457031 19.75 C 9.683594 19.980469 9.859375 20.242188 9.980469 20.542969 C 10.101562 20.839844 10.164062 21.152344 10.164062 21.476562 C 10.164062 21.800781 10.101562 22.109375 9.980469 22.410156 C 9.855469 22.707031 9.683594 22.972656 9.457031 23.199219 C 9.230469 23.429688 8.96875 23.605469 8.671875 23.730469 C 8.375 23.851562 8.066406 23.914062 7.746094 23.914062 Z M 7.746094 20.011719 C 7.554688 20.011719 7.371094 20.046875 7.191406 20.125 C 7.015625 20.199219 6.855469 20.304688 6.722656 20.441406 C 6.585938 20.578125 6.480469 20.734375 6.40625 20.914062 C 6.332031 21.09375 6.296875 21.28125 6.296875 21.476562 C 6.296875 21.667969 6.332031 21.855469 6.40625 22.035156 C 6.480469 22.214844 6.585938 22.375 6.722656 22.511719 C 6.855469 22.648438 7.015625 22.753906 7.191406 22.828125 C 7.371094 22.902344 7.554688 22.941406 7.746094 22.941406 C 7.9375 22.941406 8.125 22.902344 8.300781 22.828125 C 8.480469 22.753906 8.636719 22.648438 8.773438 22.511719 C 8.910156 22.375 9.011719 22.214844 9.085938 22.035156 C 9.160156 21.855469 9.199219 21.667969 9.199219 21.476562 C 9.199219 21.28125 9.160156 21.09375 9.085938 20.914062 C 9.011719 20.734375 8.910156 20.578125 8.773438 20.441406 C 8.636719 20.304688 8.480469 20.199219 8.300781 20.125 C 8.125 20.046875 7.9375 20.011719 7.746094 20.011719 Z M 7.746094 20.011719 " fill-opacity="1" fill-rule="nonzero"/><path fill="#797dc5" d="M 15.484375 20.5 C 15.164062 20.5 14.855469 20.4375 14.558594 20.3125 C 14.261719 20.191406 14 20.015625 13.773438 19.785156 C 13.546875 19.554688 13.371094 19.292969 13.25 18.992188 C 13.128906 18.695312 13.066406 18.382812 13.066406 18.058594 C 13.066406 17.734375 13.128906 17.425781 13.25 17.125 C 13.371094 16.828125 13.546875 16.5625 13.773438 16.332031 C 14 16.105469 14.261719 15.929688 14.558594 15.804688 C 14.855469 15.679688 15.164062 15.621094 15.484375 15.621094 C 15.804688 15.621094 16.113281 15.679688 16.410156 15.804688 C 16.703125 15.929688 16.964844 16.105469 17.191406 16.332031 C 17.417969 16.5625 17.59375 16.828125 17.71875 17.125 C 17.839844 17.425781 17.902344 17.734375 17.902344 18.058594 C 17.902344 18.382812 17.839844 18.695312 17.714844 18.992188 C 17.59375 19.292969 17.417969 19.554688 17.191406 19.785156 C 16.964844 20.011719 16.703125 20.1875 16.410156 20.3125 C 16.113281 20.4375 15.804688 20.5 15.484375 20.5 Z M 15.484375 16.59375 C 15.292969 16.59375 15.105469 16.632812 14.929688 16.707031 C 14.75 16.78125 14.59375 16.886719 14.457031 17.023438 C 14.320312 17.160156 14.21875 17.320312 14.144531 17.5 C 14.070312 17.679688 14.03125 17.867188 14.03125 18.058594 C 14.03125 18.253906 14.070312 18.441406 14.144531 18.621094 C 14.21875 18.800781 14.320312 18.957031 14.457031 19.09375 C 14.59375 19.230469 14.75 19.335938 14.929688 19.414062 C 15.105469 19.488281 15.292969 19.523438 15.484375 19.523438 C 15.675781 19.523438 15.859375 19.488281 16.039062 19.414062 C 16.214844 19.335938 16.375 19.230469 16.507812 19.09375 C 16.644531 18.957031 16.75 18.800781 16.824219 18.621094 C 16.898438 18.441406 16.933594 18.253906 16.933594 18.058594 C 16.933594 17.867188 16.898438 17.679688 16.824219 17.5 C 16.75 17.320312 16.644531 17.160156 16.507812 17.023438 C 16.375 16.886719 16.214844 16.78125 16.039062 16.707031 C 15.859375 16.632812 15.675781 16.59375 15.484375 16.59375 Z M 15.484375 16.59375 " fill-opacity="1" fill-rule="nonzero"/><path fill="#797dc5" d="M 9.679688 21.964844 C 9.546875 21.964844 9.433594 21.917969 9.339844 21.820312 C 9.246094 21.726562 9.199219 21.609375 9.199219 21.476562 L 9.199219 14.15625 C 9.195312 13.917969 9.308594 13.761719 9.535156 13.6875 L 17.273438 11.25 C 17.347656 11.226562 17.421875 11.21875 17.496094 11.234375 C 17.574219 11.246094 17.640625 11.273438 17.703125 11.320312 C 17.765625 11.367188 17.816406 11.425781 17.847656 11.496094 C 17.882812 11.5625 17.902344 11.636719 17.902344 11.714844 L 17.902344 18.058594 C 17.902344 18.195312 17.855469 18.308594 17.757812 18.40625 C 17.664062 18.5 17.550781 18.546875 17.417969 18.546875 C 17.285156 18.546875 17.171875 18.5 17.074219 18.40625 C 16.980469 18.308594 16.933594 18.195312 16.933594 18.058594 L 16.933594 12.378906 L 10.164062 14.515625 L 10.164062 21.476562 C 10.164062 21.609375 10.117188 21.726562 10.023438 21.820312 C 9.929688 21.917969 9.816406 21.964844 9.679688 21.964844 Z M 9.679688 21.964844 " fill-opacity="1" fill-rule="nonzero"/><path fill="#797dc5" d="M 18.867188 24.890625 C 18.546875 24.890625 18.238281 24.832031 17.941406 24.707031 C 17.648438 24.582031 17.386719 24.40625 17.160156 24.175781 C 16.933594 23.949219 16.757812 23.683594 16.632812 23.386719 C 16.511719 23.085938 16.449219 22.777344 16.449219 22.453125 C 16.449219 22.128906 16.511719 21.816406 16.632812 21.519531 C 16.757812 21.21875 16.933594 20.957031 17.160156 20.726562 C 17.386719 20.496094 17.648438 20.320312 17.941406 20.199219 C 18.238281 20.074219 18.546875 20.011719 18.867188 20.011719 C 19.1875 20.011719 19.496094 20.074219 19.792969 20.199219 C 20.089844 20.320312 20.351562 20.496094 20.578125 20.726562 C 20.804688 20.957031 20.980469 21.21875 21.101562 21.519531 C 21.226562 21.816406 21.285156 22.128906 21.285156 22.453125 C 21.285156 22.773438 21.222656 23.085938 21.101562 23.386719 C 20.976562 23.683594 20.804688 23.949219 20.578125 24.175781 C 20.351562 24.40625 20.089844 24.582031 19.792969 24.707031 C 19.496094 24.828125 19.1875 24.890625 18.867188 24.890625 Z M 18.867188 20.988281 C 18.675781 20.988281 18.492188 21.023438 18.3125 21.097656 C 18.136719 21.171875 17.980469 21.277344 17.84375 21.417969 C 17.707031 21.554688 17.601562 21.710938 17.527344 21.890625 C 17.453125 22.070312 17.417969 22.257812 17.417969 22.453125 C 17.417969 22.644531 17.453125 22.832031 17.527344 23.011719 C 17.601562 23.191406 17.707031 23.351562 17.84375 23.488281 C 17.980469 23.625 18.136719 23.730469 18.3125 23.804688 C 18.492188 23.878906 18.675781 23.914062 18.867188 23.914062 C 19.0625 23.914062 19.246094 23.878906 19.421875 23.804688 C 19.601562 23.730469 19.757812 23.625 19.894531 23.488281 C 20.03125 23.351562 20.136719 23.191406 20.207031 23.011719 C 20.28125 22.832031 20.320312 22.644531 20.320312 22.453125 C 20.320312 22.257812 20.28125 22.070312 20.207031 21.890625 C 20.136719 21.710938 20.03125 21.554688 19.894531 21.417969 C 19.757812 21.277344 19.601562 21.171875 19.421875 21.097656 C 19.246094 21.023438 19.0625 20.988281 18.867188 20.988281 Z M 18.867188 20.988281 " fill-opacity="1" fill-rule="nonzero"/><path fill="#797dc5" d="M 20.800781 22.941406 C 20.667969 22.941406 20.554688 22.890625 20.460938 22.796875 C 20.367188 22.703125 20.320312 22.585938 20.320312 22.453125 L 20.320312 15.132812 C 20.320312 14.996094 20.367188 14.882812 20.460938 14.785156 C 20.554688 14.691406 20.667969 14.644531 20.800781 14.644531 C 22.140625 14.644531 24.671875 15.460938 24.671875 18.546875 C 24.671875 18.683594 24.625 18.796875 24.527344 18.894531 C 24.433594 18.988281 24.320312 19.035156 24.1875 19.035156 C 24.054688 19.035156 23.941406 18.988281 23.84375 18.894531 C 23.75 18.796875 23.703125 18.683594 23.703125 18.546875 C 23.730469 18.195312 23.6875 17.851562 23.578125 17.515625 C 23.472656 17.179688 23.304688 16.878906 23.078125 16.609375 C 22.851562 16.339844 22.582031 16.121094 22.273438 15.957031 C 21.964844 15.796875 21.632812 15.695312 21.285156 15.664062 L 21.285156 22.453125 C 21.285156 22.585938 21.238281 22.703125 21.144531 22.796875 C 21.050781 22.890625 20.9375 22.941406 20.800781 22.941406 Z M 20.800781 22.941406 " fill-opacity="1" fill-rule="nonzero"/></svg>