<svg xmlns="http://www.w3.org/2000/svg" xmlns:xlink="http://www.w3.org/1999/xlink" width="40" zoomAndPan="magnify" viewBox="0 0 30 30.000001" height="40" preserveAspectRatio="xMidYMid meet" version="1.0"><defs><clipPath id="83400c1a50"><path d="M 0.484375 0 L 29.515625 0 L 29.515625 29 L 0.484375 29 Z M 0.484375 0 " clip-rule="nonzero"/></clipPath></defs><g clip-path="url(#83400c1a50)"><path fill="#797dc5" d="M 19.144531 21.230469 L 26.253906 28.339844 C 26.960938 29.042969 28.101562 29.042969 28.808594 28.335938 C 29.511719 27.632812 29.511719 26.488281 28.804688 25.785156 L 21.699219 18.683594 C 23.128906 16.738281 23.976562 14.335938 23.976562 11.738281 C 23.976562 5.261719 18.714844 0 12.234375 0 C 5.753906 0 0.496094 5.261719 0.496094 11.738281 C 0.496094 18.21875 5.753906 23.480469 12.234375 23.480469 C 14.816406 23.480469 17.207031 22.644531 19.144531 21.230469 Z M 12.234375 3.609375 C 16.722656 3.609375 20.367188 7.253906 20.367188 11.738281 C 20.367188 16.226562 16.722656 19.871094 12.234375 19.871094 C 7.746094 19.871094 4.101562 16.226562 4.101562 11.738281 C 4.101562 7.253906 7.746094 3.609375 12.234375 3.609375 Z M 12.234375 3.609375 " fill-opacity="1" fill-rule="evenodd"/></g></svg>