<svg xmlns="http://www.w3.org/2000/svg" xmlns:xlink="http://www.w3.org/1999/xlink" width="40" zoomAndPan="magnify" viewBox="0 0 30 30.000001" height="40" preserveAspectRatio="xMidYMid meet" version="1.0"><defs><clipPath id="b1458ed78a"><path d="M 1 0 L 29 0 L 29 27.582031 L 1 27.582031 Z M 1 0 " clip-rule="nonzero"/></clipPath></defs><g clip-path="url(#b1458ed78a)"><path fill="#797dc5" d="M 27.359375 3.398438 C 26.617188 2.765625 25.589844 2.589844 24.445312 2.820312 C 24.5625 2.015625 24.617188 1.265625 24.617188 0.574219 C 24.617188 0.230469 24.390625 0 24.046875 0 L 5.894531 0 C 5.554688 0 5.324219 0.230469 5.324219 0.574219 C 5.324219 1.265625 5.382812 2.015625 5.496094 2.820312 C 4.355469 2.589844 3.382812 2.820312 2.585938 3.398438 C 0.585938 5.066406 0.929688 9.039062 3.441406 12.4375 C 5.152344 14.855469 7.492188 16.296875 9.492188 16.296875 C 9.835938 16.296875 10.121094 16.238281 10.40625 16.179688 C 11.203125 17.214844 12.117188 18.078125 13.085938 18.539062 C 12.515625 20.671875 11.546875 22.054688 10.519531 22.054688 C 10.175781 22.054688 9.949219 22.285156 9.949219 22.628906 C 9.949219 22.628906 9.949219 22.6875 9.949219 22.6875 L 9.949219 27.003906 C 9.949219 27.351562 10.175781 27.582031 10.519531 27.582031 L 19.480469 27.582031 C 19.824219 27.582031 20.050781 27.351562 20.050781 27.003906 L 20.050781 22.6875 C 20.050781 22.6875 20.050781 22.628906 20.050781 22.628906 C 20.050781 22.285156 19.824219 22.054688 19.480469 22.054688 C 18.511719 22.054688 17.484375 20.671875 16.914062 18.539062 C 17.882812 18.078125 18.738281 17.214844 19.59375 16.179688 C 19.878906 16.238281 20.164062 16.296875 20.507812 16.296875 C 22.507812 16.296875 24.847656 14.796875 26.558594 12.4375 C 29.015625 8.984375 29.414062 5.007812 27.359375 3.398438 Z M 4.355469 11.746094 C 2.300781 8.925781 1.84375 5.46875 3.328125 4.261719 C 3.667969 3.972656 4.070312 3.859375 4.640625 3.859375 C 4.925781 3.859375 5.265625 3.859375 5.609375 3.972656 C 5.609375 4.03125 5.609375 4.089844 5.667969 4.144531 C 6.238281 7.886719 7.550781 11.574219 9.664062 15.144531 C 8.007812 15.257812 5.894531 13.875 4.355469 11.746094 Z M 18.851562 23.261719 L 18.851562 26.429688 L 11.089844 26.429688 L 11.089844 23.261719 Z M 17.3125 22.109375 L 12.574219 22.109375 C 13.203125 21.363281 13.714844 20.324219 14.113281 18.945312 C 14.800781 19.117188 15.3125 19.058594 15.828125 18.945312 C 16.171875 20.269531 16.683594 21.363281 17.3125 22.109375 Z M 18.910156 15.199219 C 18.910156 15.199219 18.851562 15.199219 18.910156 15.199219 C 17.710938 16.871094 16.339844 17.90625 14.972656 17.90625 C 13.601562 17.90625 12.289062 16.871094 11.089844 15.199219 C 11.089844 15.199219 11.089844 15.199219 11.089844 15.144531 C 9.09375 12.378906 7.378906 7.773438 6.75 3.453125 C 6.75 3.453125 6.75 3.398438 6.75 3.398438 C 6.582031 2.589844 6.464844 1.84375 6.464844 1.09375 L 23.476562 1.09375 C 23.476562 1.84375 23.363281 2.589844 23.25 3.398438 C 23.25 3.398438 23.25 3.453125 23.25 3.453125 C 22.621094 7.773438 21.195312 11.632812 18.910156 15.199219 Z M 25.589844 11.746094 C 24.046875 13.875 21.878906 15.257812 20.28125 15.144531 C 22.277344 11.574219 23.761719 7.945312 24.277344 4.203125 C 24.277344 4.144531 24.332031 4.03125 24.332031 3.972656 C 25.246094 3.683594 26.101562 3.800781 26.671875 4.261719 C 28.15625 5.46875 27.699219 8.925781 25.589844 11.746094 Z M 25.589844 11.746094 " fill-opacity="1" fill-rule="nonzero"/></g></svg>