<svg xmlns="http://www.w3.org/2000/svg" xmlns:xlink="http://www.w3.org/1999/xlink" width="100" zoomAndPan="magnify" viewBox="0 0 75 74.999997" height="100" preserveAspectRatio="xMidYMid meet" version="1.0"><defs><clipPath id="6e2a00bb21"><path d="M 0.0078125 0.0078125 L 75 0.0078125 L 75 75 L 0.0078125 75 Z M 0.0078125 0.0078125 " clip-rule="nonzero"/></clipPath></defs><g clip-path="url(#6e2a00bb21)"><path fill="#e9e8e7" d="M 10.996094 10.996094 C 4.207031 17.78125 0.0078125 27.15625 0.0078125 37.507812 C 0.0078125 41.242188 0.550781 44.851562 1.574219 48.261719 C 2.625 51.78125 4.175781 55.082031 6.160156 58.101562 C 6.4375 58.519531 6.996094 58.628906 7.414062 58.367188 C 7.832031 58.085938 7.941406 57.527344 7.679688 57.109375 C 5.789062 54.242188 4.316406 51.097656 3.308594 47.734375 C 2.347656 44.496094 1.820312 41.054688 1.820312 37.507812 C 1.820312 27.652344 5.820312 18.726562 12.28125 12.28125 C 18.742188 5.820312 27.667969 1.820312 37.507812 1.820312 C 37.972656 1.820312 38.359375 1.820312 38.699219 1.835938 C 39.074219 1.851562 39.476562 1.867188 39.894531 1.898438 C 40.390625 1.929688 40.824219 1.558594 40.855469 1.046875 C 40.886719 0.550781 40.515625 0.117188 40.003906 0.0859375 C 39.617188 0.0546875 39.195312 0.0390625 38.746094 0.0234375 C 38.28125 0.0234375 37.863281 0.0078125 37.507812 0.0078125 C 27.15625 0.0078125 17.78125 4.207031 10.996094 10.996094 Z M 49.609375 1.355469 C 54.753906 7.847656 62.65625 15.75 69.152344 20.894531 C 69.660156 19.363281 69.941406 17.71875 69.941406 16.015625 C 69.941406 11.460938 67.925781 7.152344 64.457031 4.207031 C 61.636719 1.835938 58.117188 0.566406 54.492188 0.566406 C 52.863281 0.566406 51.207031 0.828125 49.609375 1.355469 Z M 42 6.933594 C 43.289062 5.167969 44.945312 3.679688 46.851562 2.59375 C 49.5625 6.066406 52.941406 9.878906 56.785156 13.722656 C 60.628906 17.566406 64.441406 20.941406 67.910156 23.65625 C 66.824219 25.5625 65.339844 27.21875 63.570312 28.503906 C 59.960938 25.667969 56.070312 22.214844 52.183594 18.324219 C 48.292969 14.433594 44.835938 10.53125 42 6.933594 Z M 27.25 12.730469 L 28.257812 9.460938 L 29.265625 12.730469 L 32.535156 13.738281 L 29.265625 14.746094 L 28.257812 18.015625 L 27.25 14.746094 L 23.980469 13.738281 Z M 39.042969 16.015625 C 39.042969 13.753906 39.523438 11.597656 40.40625 9.660156 C 43.457031 13.457031 46.804688 17.085938 50.105469 20.386719 C 53.421875 23.699219 57.046875 27.046875 60.828125 30.085938 C 58.890625 30.953125 56.738281 31.449219 54.476562 31.449219 C 45.953125 31.464844 39.042969 24.554688 39.042969 16.015625 Z M 14.046875 49.484375 L 36.625 21.175781 C 38.390625 27.3125 43.210938 32.128906 49.332031 33.882812 L 21.019531 56.460938 C 19.269531 57.855469 16.976562 58.257812 15.148438 57.28125 C 15.039062 57.203125 14.945312 57.125 14.851562 57.0625 C 13.953125 58.738281 13.707031 60.488281 14.046875 62.128906 C 14.28125 63.277344 14.789062 64.363281 15.582031 65.324219 C 16.292969 66.207031 16.960938 66.703125 17.875 67.304688 C 20.570312 69.089844 23.515625 70.515625 26.660156 71.503906 C 30.070312 72.589844 33.726562 73.179688 37.507812 73.179688 C 47.363281 73.179688 56.289062 69.179688 62.734375 62.71875 C 69.195312 56.257812 73.195312 47.332031 73.195312 37.492188 C 73.195312 35.601562 73.054688 33.742188 72.777344 31.960938 C 72.496094 30.117188 72.0625 28.335938 71.503906 26.582031 C 71.351562 26.101562 71.613281 25.605469 72.09375 25.453125 C 72.574219 25.296875 73.070312 25.5625 73.226562 26.039062 C 73.816406 27.871094 74.265625 29.746094 74.558594 31.695312 C 74.851562 33.601562 75.007812 35.539062 75.007812 37.507812 C 75.007812 47.859375 70.808594 57.234375 64.019531 64.019531 C 57.234375 70.808594 47.859375 75.007812 37.507812 75.007812 C 33.539062 75.007812 29.714844 74.386719 26.101562 73.242188 C 22.816406 72.1875 19.71875 70.699219 16.898438 68.855469 C 15.71875 68.082031 15.007812 67.570312 14.078125 66.359375 C 13.164062 65.199219 12.558594 63.882812 12.265625 62.503906 C 11.832031 60.394531 12.171875 58.148438 13.335938 56.054688 L 13.488281 55.792969 C 13.410156 55.683594 13.351562 55.589844 13.304688 55.5 C 12.234375 53.65625 12.621094 51.285156 14.046875 49.484375 Z M 14.714844 25.996094 L 16.140625 21.34375 L 17.566406 25.996094 L 22.214844 27.421875 L 17.566406 28.84375 L 16.140625 33.496094 L 14.714844 28.84375 L 10.066406 27.421875 Z M 57.542969 42.589844 L 54.273438 43.597656 L 57.542969 44.605469 L 58.550781 47.875 L 59.558594 44.605469 L 62.828125 43.597656 L 59.558594 42.589844 L 58.550781 39.320312 Z M 44.511719 54.242188 L 46.574219 47.550781 L 48.632812 54.242188 L 55.328125 56.304688 L 48.632812 58.367188 L 46.574219 65.058594 L 44.511719 58.367188 L 37.816406 56.289062 Z M 44.511719 54.242188 " fill-opacity="1" fill-rule="evenodd"/></g></svg>